<?xml version="1.0" standalone="no"?>
<!DOCTYPE svg PUBLIC "-//W3C//DTD SVG 20010904//EN"
 "http://www.w3.org/TR/2001/REC-SVG-20010904/DTD/svg10.dtd">
<svg version="1.0" xmlns="http://www.w3.org/2000/svg"
 width="48.000000pt" height="48.000000pt" viewBox="0 0 48.000000 48.000000"
 preserveAspectRatio="xMidYMid meet">

<g transform="translate(0.000000,48.000000) scale(0.100000,-0.100000)"
fill="#000000" stroke="none">
<path d="M230 410 c0 -33 4 -60 10 -60 6 0 10 27 10 60 0 33 -4 60 -10 60 -6
0 -10 -27 -10 -60z"/>
<path d="M316 403 c-25 -43 -28 -82 -7 -69 16 10 61 98 55 107 -11 18 -23 8
-48 -38z"/>
<path d="M387 346 c-54 -32 -64 -44 -44 -51 19 -8 109 43 104 58 -6 18 -20 16
-60 -7z"/>
<path d="M355 250 c-13 -21 11 -31 66 -28 40 2 54 7 54 18 0 19 -109 28 -120
10z"/>
<path d="M332 178 c6 -17 97 -70 109 -63 17 11 9 23 -35 49 -47 28 -80 34 -74
14z"/>
<path d="M155 125 c-8 -14 -22 -36 -30 -50 -15 -25 -13 -45 5 -45 11 0 60 85
60 104 0 24 -18 19 -35 -9z"/>
<path d="M290 135 c0 -20 49 -105 60 -105 21 0 18 22 -8 66 -29 50 -52 67 -52
39z"/>
<path d="M224 117 c-3 -8 -4 -36 -2 -63 2 -36 7 -49 18 -49 20 0 22 116 3 122
-7 3 -16 -2 -19 -10z"/>
</g>
</svg>
